<?xml version="1.0" standalone="no"?>
<!DOCTYPE svg PUBLIC "-//W3C//DTD SVG 20010904//EN"
 "http://www.w3.org/TR/2001/REC-SVG-20010904/DTD/svg10.dtd">
<svg version="1.0" xmlns="http://www.w3.org/2000/svg"
 width="65.000000pt" height="67.000000pt" viewBox="0 0 65.000000 67.000000"
 preserveAspectRatio="xMidYMid meet">

<g transform="translate(0.000000,67.000000) scale(0.100000,-0.100000)"
fill="#000000" stroke="none">
<path d="M215 632 c-34 -21 -85 -78 -85 -94 0 -6 -19 -52 -42 -102 -36 -77
-42 -100 -41 -151 1 -69 20 -119 65 -170 53 -61 99 -78 213 -82 90 -4 104 -2
140 19 60 35 126 136 145 224 14 62 -2 138 -41 197 -32 48 -116 110 -146 107
-10 -1 -35 -2 -56 -1 -32 1 -37 4 -33 19 9 27 -8 43 -50 48 -28 4 -48 -1 -69
-14z m226 -201 c16 -16 29 -34 29 -40 0 -13 3 -14 -44 3 -46 16 -96 7 -138
-24 -37 -27 -52 -18 -32 21 36 70 133 91 185 40z m-6 -75 c19 -8 35 -19 35
-23 0 -4 -33 -8 -72 -8 -61 0 -79 -4 -106 -24 -18 -13 -36 -21 -38 -18 -11 11
17 45 48 60 63 29 88 31 133 13z m16 -86 l24 -21 -50 6 c-58 7 -98 -5 -137
-42 -34 -32 -49 -23 -22 14 45 60 140 82 185 43z"/>
</g>
</svg>
