<?xml version="1.0" standalone="no"?>
<!DOCTYPE svg PUBLIC "-//W3C//DTD SVG 20010904//EN"
 "http://www.w3.org/TR/2001/REC-SVG-20010904/DTD/svg10.dtd">
<svg version="1.0" xmlns="http://www.w3.org/2000/svg"
 width="228.000000pt" height="99.000000pt" viewBox="0 0 228.000000 99.000000"
 preserveAspectRatio="xMidYMid meet">

<g transform="translate(0.000000,99.000000) scale(0.100000,-0.100000)"
fill="#000000" stroke="none">
<path d="M339 947 c-58 -22 -98 -56 -135 -113 -19 -29 -34 -56 -34 -59 0 -3
-25 -62 -55 -130 -31 -69 -60 -149 -66 -178 -26 -144 71 -328 207 -392 97 -46
303 -56 391 -20 107 45 232 239 249 389 13 106 -34 227 -121 311 -68 67 -112
87 -209 94 -78 6 -79 6 -80 34 -3 58 -76 90 -147 64z m276 -293 c28 -19 70
-82 61 -92 -4 -3 -21 0 -39 7 -61 26 -121 25 -179 -3 -29 -14 -61 -31 -70 -38
-13 -10 -20 -10 -29 -1 -20 20 33 97 83 122 53 26 138 28 173 5z m25 -139 c17
-9 30 -23 30 -32 0 -13 -6 -14 -32 -7 -72 18 -131 9 -202 -29 -58 -32 -67 -35
-73 -20 -4 11 4 25 26 43 64 54 191 76 251 45z m-7 -106 c58 -31 41 -51 -37
-43 -52 5 -71 3 -112 -15 -27 -12 -59 -31 -70 -42 -12 -12 -30 -19 -41 -17
-27 5 61 95 112 113 49 17 119 19 148 4z"/>
<path d="M1137 596 c-58 -16 -87 -40 -70 -57 9 -9 18 -8 35 3 33 22 116 32
134 17 12 -10 17 -10 27 0 9 10 7 17 -12 32 -27 22 -47 23 -114 5z"/>
<path d="M1764 592 c-28 -18 -48 -102 -24 -102 5 0 19 18 30 40 29 56 26 84
-6 62z"/>
<path d="M2026 565 c-9 -13 -16 -27 -16 -31 0 -9 50 39 50 49 0 15 -18 6 -34
-18z"/>
<path d="M1542 522 c-25 -12 -32 -21 -28 -35 3 -11 -2 -30 -10 -43 -9 -13 -14
-31 -12 -41 3 -16 16 -18 98 -20 52 -2 109 -4 125 -5 49 -5 37 24 -19 44 -46
16 -54 16 -104 2 -46 -14 -56 -14 -63 -3 -14 22 -11 26 26 55 55 41 45 74 -13
46z"/>
<path d="M1116 510 c-31 -20 -59 -83 -50 -112 9 -29 84 -27 125 3 34 24 41 24
57 -1 7 -11 21 -20 32 -20 22 0 26 10 9 27 -14 14 -2 53 16 53 18 0 30 19 18
31 -6 6 -24 -2 -48 -21 -41 -32 -50 -36 -60 -20 -9 15 -25 12 -25 -5 0 -32
-76 -48 -87 -18 -4 11 5 25 30 46 59 47 45 77 -17 37z"/>
<path d="M1952 474 c-18 -31 -32 -59 -32 -63 0 -4 12 -14 27 -22 21 -11 27
-12 31 -1 2 7 15 18 29 23 18 6 24 15 21 31 -4 33 -38 37 -38 4 0 -28 -10 -38
-29 -27 -9 6 -6 17 13 46 26 37 33 65 18 65 -4 0 -22 -25 -40 -56z"/>
<path d="M1393 485 c-12 -9 -31 -29 -43 -45 l-21 -29 22 -11 c14 -8 24 -9 31
-2 7 7 18 6 33 -4 29 -19 38 -7 41 58 2 44 0 48 -20 48 -12 0 -31 -7 -43 -15z
m17 -50 c0 -8 -7 -15 -15 -15 -8 0 -15 7 -15 15 0 8 7 15 15 15 8 0 15 -7 15
-15z"/>
<path d="M1822 466 c-31 -29 -35 -38 -26 -53 14 -23 29 -19 29 10 0 13 7 23
18 25 16 3 17 1 7 -18 -10 -18 -8 -24 7 -35 29 -23 37 -12 40 48 2 51 0 57
-18 57 -10 0 -36 -16 -57 -34z"/>
</g>
</svg>
